<svg width="272" height="58" viewBox="0 0 272 58" fill="none" xmlns="http://www.w3.org/2000/svg">
<path d="M31.75 19.125V22.25H34.875V25.375H28.625V22.25H22.375V37.875H28.625V34.75H34.875V37.875H31.75V41H19.25V37.875H16.125V22.25H19.25V19.125H31.75ZM56.75 19.125V22.25H59.875V37.875H56.75V41H44.25V37.875H41.125V22.25H44.25V19.125H56.75ZM53.625 22.25H47.375V37.875H53.625V22.25ZM66.125 41V19.125H84.875V22.25H88V41H81.75V22.25H78.625V37.875H75.5V22.25H72.375V41H66.125ZM109.875 22.25V37.875H106.75V41H97.375V50.375H91.125V19.125H106.75V22.25H109.875ZM103.625 22.25H97.375V37.875H103.625V22.25ZM134.875 37.875V41H116.125V37.875H122.375V16H116.125V12.875H128.625V37.875H134.875ZM144.25 22.25V19.125H156.75V22.25H159.875V31.625H147.375V37.875H156.75V41H144.25V37.875H141.125V22.25H144.25ZM153.625 22.25H147.375V28.5H153.625V22.25ZM175.5 12.875V19.125H184.875V22.25H175.5V37.875H184.875V41H172.375V37.875H169.25V22.25H166.125V19.125H169.25V12.875H175.5ZM194.25 22.25V19.125H206.75V22.25H209.875V31.625H197.375V37.875H206.75V41H194.25V37.875H191.125V22.25H194.25ZM203.625 22.25H197.375V28.5H203.625V22.25ZM234.875 12.875V41H219.25V37.875H216.125V22.25H219.25V19.125H228.625V12.875H234.875ZM228.625 22.25H222.375V37.875H228.625V22.25ZM253.625 12.875V16H256.75V25.375H253.625V31.625H247.375V25.375H244.25V16H247.375V12.875H253.625ZM247.375 41V34.75H253.625V41H247.375Z" fill="#F90000"/>
<rect x="2.5" y="2.5" width="267" height="53" stroke="#FF0000" stroke-width="5"/>
</svg>
