<svg width="230" height="96" viewBox="0 0 230 96" fill="none" xmlns="http://www.w3.org/2000/svg">
<path d="M200 48V36H218V48H200ZM200 78V66H218V78H200Z" fill="white"/>
<path d="M122 24V30H128V48H122V60H128V78H116V60H110V54H104V78H92V24H122ZM116 30H104V48H116V30ZM146 42V36H170V42H176V60H152V72H170V78H146V72H140V42H146ZM164 42H152V54H164V42Z" fill="#FE0000"/>
<path d="M122 24H125V21H122V24ZM122 30H119V33H122V30ZM128 30H131V27H128V30ZM128 48V51H131V48H128ZM122 48V45H119V48H122ZM122 60H119V63H122V60ZM128 60H131V57H128V60ZM128 78V81H131V78H128ZM116 78H113V81H116V78ZM116 60H119V57H116V60ZM110 60H107V63H110V60ZM110 54H113V51H110V54ZM104 54V51H101V54H104ZM104 78V81H107V78H104ZM92 78H89V81H92V78ZM92 24V21H89V24H92ZM116 30H119V27H116V30ZM104 30V27H101V30H104ZM104 48H101V51H104V48ZM116 48V51H119V48H116ZM119 24V30H125V24H119ZM122 33H128V27H122V33ZM125 30V48H131V30H125ZM128 45H122V51H128V45ZM119 48V60H125V48H119ZM122 63H128V57H122V63ZM125 60V78H131V60H125ZM128 75H116V81H128V75ZM119 78V60H113V78H119ZM116 57H110V63H116V57ZM113 60V54H107V60H113ZM110 51H104V57H110V51ZM101 54V78H107V54H101ZM104 75H92V81H104V75ZM95 78V24H89V78H95ZM92 27H122V21H92V27ZM116 27H104V33H116V27ZM101 30V48H107V30H101ZM104 51H116V45H104V51ZM119 48V30H113V48H119ZM146 42V45H149V42H146ZM146 36V33H143V36H146ZM170 36H173V33H170V36ZM170 42H167V45H170V42ZM176 42H179V39H176V42ZM176 60V63H179V60H176ZM152 60V57H149V60H152ZM152 72H149V75H152V72ZM170 72H173V69H170V72ZM170 78V81H173V78H170ZM146 78H143V81H146V78ZM146 72H149V69H146V72ZM140 72H137V75H140V72ZM140 42V39H137V42H140ZM164 42H167V39H164V42ZM152 42V39H149V42H152ZM152 54H149V57H152V54ZM164 54V57H167V54H164ZM149 42V36H143V42H149ZM146 39H170V33H146V39ZM167 36V42H173V36H167ZM170 45H176V39H170V45ZM173 42V60H179V42H173ZM176 57H152V63H176V57ZM149 60V72H155V60H149ZM152 75H170V69H152V75ZM167 72V78H173V72H167ZM170 75H146V81H170V75ZM149 78V72H143V78H149ZM146 69H140V75H146V69ZM143 72V42H137V72H143ZM140 45H146V39H140V45ZM164 39H152V45H164V39ZM149 42V54H155V42H149ZM152 57H164V51H152V57ZM167 54V42H161V54H167ZM200 48H197V51H200V48ZM200 36V33H197V36H200ZM218 36H221V33H218V36ZM218 48V51H221V48H218ZM200 78H197V81H200V78ZM200 66V63H197V66H200ZM218 66H221V63H218V66ZM218 78V81H221V78H218ZM203 48V36H197V48H203ZM200 39H218V33H200V39ZM215 36V48H221V36H215ZM218 45H200V51H218V45ZM203 78V66H197V78H203ZM200 69H218V63H200V69ZM215 66V78H221V66H215ZM218 75H200V81H218V75Z" fill="#F9F9F9"/>
<rect x="1.5" y="47.5" width="32" height="29" fill="#212529" stroke="white" stroke-width="3"/>
<path d="M60.5402 78.9353L34.8728 62.123L60.2949 44.9439L60.5402 78.9353Z" fill="#212529" stroke="white" stroke-width="3"/>
<rect x="197.5" y="31.5" width="21" height="19" fill="#00FF38" stroke="white" stroke-width="3"/>
<rect x="197.5" y="61.5" width="21" height="19" fill="#0500FF" stroke="white" stroke-width="3"/>
</svg>
