<svg width="192" height="96" viewBox="0 0 192 96" fill="none" xmlns="http://www.w3.org/2000/svg">
<path d="M162 48V36H180V48H162ZM162 78V66H180V78H162Z" fill="white"/>
<path d="M84 24V30H90V48H84V60H90V78H78V60H72V54H66V78H54V24H84ZM78 30H66V48H78V30ZM108 42V36H132V42H138V60H114V72H132V78H108V72H102V42H108ZM126 42H114V54H126V42Z" fill="#FE0000"/>
<path d="M84 24H87V21H84V24ZM84 30H81V33H84V30ZM90 30H93V27H90V30ZM90 48V51H93V48H90ZM84 48V45H81V48H84ZM84 60H81V63H84V60ZM90 60H93V57H90V60ZM90 78V81H93V78H90ZM78 78H75V81H78V78ZM78 60H81V57H78V60ZM72 60H69V63H72V60ZM72 54H75V51H72V54ZM66 54V51H63V54H66ZM66 78V81H69V78H66ZM54 78H51V81H54V78ZM54 24V21H51V24H54ZM78 30H81V27H78V30ZM66 30V27H63V30H66ZM66 48H63V51H66V48ZM78 48V51H81V48H78ZM81 24V30H87V24H81ZM84 33H90V27H84V33ZM87 30V48H93V30H87ZM90 45H84V51H90V45ZM81 48V60H87V48H81ZM84 63H90V57H84V63ZM87 60V78H93V60H87ZM90 75H78V81H90V75ZM81 78V60H75V78H81ZM78 57H72V63H78V57ZM75 60V54H69V60H75ZM72 51H66V57H72V51ZM63 54V78H69V54H63ZM66 75H54V81H66V75ZM57 78V24H51V78H57ZM54 27H84V21H54V27ZM78 27H66V33H78V27ZM63 30V48H69V30H63ZM66 51H78V45H66V51ZM81 48V30H75V48H81ZM108 42V45H111V42H108ZM108 36V33H105V36H108ZM132 36H135V33H132V36ZM132 42H129V45H132V42ZM138 42H141V39H138V42ZM138 60V63H141V60H138ZM114 60V57H111V60H114ZM114 72H111V75H114V72ZM132 72H135V69H132V72ZM132 78V81H135V78H132ZM108 78H105V81H108V78ZM108 72H111V69H108V72ZM102 72H99V75H102V72ZM102 42V39H99V42H102ZM126 42H129V39H126V42ZM114 42V39H111V42H114ZM114 54H111V57H114V54ZM126 54V57H129V54H126ZM111 42V36H105V42H111ZM108 39H132V33H108V39ZM129 36V42H135V36H129ZM132 45H138V39H132V45ZM135 42V60H141V42H135ZM138 57H114V63H138V57ZM111 60V72H117V60H111ZM114 75H132V69H114V75ZM129 72V78H135V72H129ZM132 75H108V81H132V75ZM111 78V72H105V78H111ZM108 69H102V75H108V69ZM105 72V42H99V72H105ZM102 45H108V39H102V45ZM126 39H114V45H126V39ZM111 42V54H117V42H111ZM114 57H126V51H114V57ZM129 54V42H123V54H129ZM162 48H159V51H162V48ZM162 36V33H159V36H162ZM180 36H183V33H180V36ZM180 48V51H183V48H180ZM162 78H159V81H162V78ZM162 66V63H159V66H162ZM180 66H183V63H180V66ZM180 78V81H183V78H180ZM165 48V36H159V48H165ZM162 39H180V33H162V39ZM177 36V48H183V36H177ZM180 45H162V51H180V45ZM165 78V66H159V78H165ZM162 69H180V63H162V69ZM177 66V78H183V66H177ZM180 75H162V81H180V75Z" fill="#F9F9F9"/>
</svg>
