<svg width="253" height="96" viewBox="0 0 253 96" fill="none" xmlns="http://www.w3.org/2000/svg">
<path d="M223 48V36H241V48H223ZM223 78V66H241V78H223Z" fill="white"/>
<path d="M145 24V30H151V48H145V60H151V78H139V60H133V54H127V78H115V24H145ZM139 30H127V48H139V30ZM169 42V36H193V42H199V60H175V72H193V78H169V72H163V42H169ZM187 42H175V54H187V42Z" fill="#FE0000"/>
<path d="M145 24H148V21H145V24ZM145 30H142V33H145V30ZM151 30H154V27H151V30ZM151 48V51H154V48H151ZM145 48V45H142V48H145ZM145 60H142V63H145V60ZM151 60H154V57H151V60ZM151 78V81H154V78H151ZM139 78H136V81H139V78ZM139 60H142V57H139V60ZM133 60H130V63H133V60ZM133 54H136V51H133V54ZM127 54V51H124V54H127ZM127 78V81H130V78H127ZM115 78H112V81H115V78ZM115 24V21H112V24H115ZM139 30H142V27H139V30ZM127 30V27H124V30H127ZM127 48H124V51H127V48ZM139 48V51H142V48H139ZM142 24V30H148V24H142ZM145 33H151V27H145V33ZM148 30V48H154V30H148ZM151 45H145V51H151V45ZM142 48V60H148V48H142ZM145 63H151V57H145V63ZM148 60V78H154V60H148ZM151 75H139V81H151V75ZM142 78V60H136V78H142ZM139 57H133V63H139V57ZM136 60V54H130V60H136ZM133 51H127V57H133V51ZM124 54V78H130V54H124ZM127 75H115V81H127V75ZM118 78V24H112V78H118ZM115 27H145V21H115V27ZM139 27H127V33H139V27ZM124 30V48H130V30H124ZM127 51H139V45H127V51ZM142 48V30H136V48H142ZM169 42V45H172V42H169ZM169 36V33H166V36H169ZM193 36H196V33H193V36ZM193 42H190V45H193V42ZM199 42H202V39H199V42ZM199 60V63H202V60H199ZM175 60V57H172V60H175ZM175 72H172V75H175V72ZM193 72H196V69H193V72ZM193 78V81H196V78H193ZM169 78H166V81H169V78ZM169 72H172V69H169V72ZM163 72H160V75H163V72ZM163 42V39H160V42H163ZM187 42H190V39H187V42ZM175 42V39H172V42H175ZM175 54H172V57H175V54ZM187 54V57H190V54H187ZM172 42V36H166V42H172ZM169 39H193V33H169V39ZM190 36V42H196V36H190ZM193 45H199V39H193V45ZM196 42V60H202V42H196ZM199 57H175V63H199V57ZM172 60V72H178V60H172ZM175 75H193V69H175V75ZM190 72V78H196V72H190ZM193 75H169V81H193V75ZM172 78V72H166V78H172ZM169 69H163V75H169V69ZM166 72V42H160V72H166ZM163 45H169V39H163V45ZM187 39H175V45H187V39ZM172 42V54H178V42H172ZM175 57H187V51H175V57ZM190 54V42H184V54H190ZM223 48H220V51H223V48ZM223 36V33H220V36H223ZM241 36H244V33H241V36ZM241 48V51H244V48H241ZM223 78H220V81H223V78ZM223 66V63H220V66H223ZM241 66H244V63H241V66ZM241 78V81H244V78H241ZM226 48V36H220V48H226ZM223 39H241V33H223V39ZM238 36V48H244V36H238ZM241 45H223V51H241V45ZM226 78V66H220V78H226ZM223 69H241V63H223V69ZM238 66V78H244V66H238ZM241 75H223V81H241V75Z" fill="#F9F9F9"/>
<rect x="1.5" y="22.5" width="55" height="54" fill="#212529" stroke="white" stroke-width="3"/>
<path d="M90.5784 71.8033L60.8901 52.3038L90.2946 32.3789L90.5784 71.8033Z" fill="#212529" stroke="white" stroke-width="3"/>
<rect x="220.5" y="31.5" width="21" height="19" fill="#00FF38" stroke="white" stroke-width="3"/>
<rect x="220.5" y="61.5" width="21" height="19" fill="#0500FF" stroke="white" stroke-width="3"/>
</svg>
